<?xml version="1.0" standalone="no"?>
<!DOCTYPE svg PUBLIC "-//W3C//DTD SVG 20010904//EN"
 "http://www.w3.org/TR/2001/REC-SVG-20010904/DTD/svg10.dtd">
<svg version="1.0" xmlns="http://www.w3.org/2000/svg"
 width="223.000000pt" height="221.000000pt" viewBox="0 0 223.000000 221.000000"
 preserveAspectRatio="xMidYMid meet">
<metadata>
Created by potrace 1.16, written by Peter Selinger 2001-2019
</metadata>
<g transform="translate(0.000000,221.000000) scale(0.100000,-0.100000)"
fill="#000000" stroke="none">
<path d="M485 2123 c-48 -17 -77 -42 -70 -60 3 -9 0 -11 -7 -7 -8 5 -9 -4 -5
-33 5 -30 3 -44 -8 -53 -8 -7 -15 -21 -15 -31 0 -14 -7 -19 -26 -19 -58 0
-123 -67 -109 -111 3 -10 -1 -30 -11 -43 -16 -25 -16 -38 0 -123 4 -20 1 -22
-21 -17 -13 4 -34 2 -46 -4 -12 -6 -33 -13 -47 -16 -36 -8 -78 -96 -61 -132 6
-14 11 -36 11 -49 0 -13 10 -31 21 -39 12 -8 27 -25 33 -38 6 -12 20 -24 31
-26 11 -2 27 -10 35 -17 24 -20 89 -28 107 -13 13 10 18 8 35 -12 19 -24 19
-24 -1 -31 -11 -5 -27 -21 -35 -37 -8 -16 -22 -34 -31 -42 -9 -7 -16 -29 -16
-49 0 -20 -1 -51 -1 -70 0 -21 5 -37 16 -43 9 -5 16 -17 16 -26 0 -9 16 -25
35 -34 l34 -17 6 37 c37 231 157 415 346 529 41 24 93 49 117 56 50 13 57 37
8 28 -4 -1 -14 3 -22 10 -7 6 -18 8 -25 4 -6 -4 -21 -2 -34 5 -13 7 -34 10
-47 7 -37 -10 -42 -6 -60 42 -22 56 -22 61 -3 61 8 0 19 9 25 20 6 11 17 20
25 20 14 0 31 37 22 47 -3 2 3 13 14 24 21 21 25 59 8 76 -8 8 -8 21 -2 40 14
44 6 63 -28 63 -16 0 -29 5 -29 10 0 6 7 10 15 10 24 0 18 19 -10 32 -14 6
-25 19 -25 28 0 9 -10 26 -23 38 -27 26 -80 28 -142 5z m70 -433 c3 -5 12 -7
19 -4 10 4 17 -9 25 -46 14 -67 14 -80 -3 -80 -8 0 -18 -9 -21 -20 -3 -11 -11
-20 -16 -20 -5 0 -19 -23 -31 -51 l-22 -51 -18 22 c-24 30 -23 52 6 78 26 22
40 69 41 140 0 40 7 52 20 32z"/>
<path d="M1700 2113 c-20 -7 -50 -34 -50 -45 0 -4 9 -8 19 -8 20 0 51 -25 51
-41 0 -5 -34 -9 -75 -9 -68 0 -76 -2 -91 -25 -11 -17 -14 -35 -10 -59 5 -24 2
-37 -9 -46 -19 -16 -19 -40 0 -66 8 -12 11 -24 8 -28 -4 -3 3 -15 15 -26 12
-12 22 -27 22 -35 0 -7 5 -15 11 -17 8 -3 6 -15 -6 -38 -34 -67 -54 -88 -87
-92 -18 -3 -40 -7 -48 -9 -8 -2 -14 1 -13 6 1 6 7 56 14 113 12 91 11 106 -3
130 -16 26 -45 83 -58 111 -10 22 -71 20 -105 -5 -57 -40 -57 -40 -50 10 6 38
5 46 -9 46 -15 0 -19 -9 -30 -78 -3 -18 -14 -45 -25 -60 -12 -17 -24 -59 -31
-117 -6 -49 -14 -98 -16 -107 -4 -14 4 -19 38 -25 24 -4 46 -6 51 -5 4 1 7 -5
7 -13 0 -11 11 -15 44 -13 95 3 299 -129 383 -248 87 -125 130 -236 140 -366
3 -43 9 -78 13 -78 28 0 61 100 40 124 -7 10 -6 17 4 25 10 8 16 9 21 1 3 -5
14 -10 25 -10 10 0 20 -6 23 -13 4 -10 22 -13 64 -12 77 3 147 39 151 79 2 15
12 36 22 46 20 20 25 103 9 146 -7 20 -44 34 -91 35 -28 0 -21 16 12 27 32 12
46 45 36 87 -4 15 -1 34 8 48 18 29 6 61 -33 85 -26 16 -28 20 -16 33 8 8 15
33 16 56 2 23 6 40 10 37 13 -8 49 39 49 63 0 13 -5 32 -12 43 -10 15 -9 24 2
45 13 25 12 28 -34 70 -53 50 -54 50 -91 33 -19 -9 -28 -9 -37 0 -18 18 -46
14 -60 -8 -23 -36 -41 -25 -33 20 5 31 2 47 -14 74 -12 19 -21 38 -20 43 8 45
-90 88 -151 66z m37 -452 c6 -9 9 -26 6 -39 -6 -25 20 -62 44 -62 23 0 15 -13
-47 -80 -49 -53 -61 -62 -69 -50 -6 8 -11 22 -11 31 0 9 -7 22 -15 29 -8 7
-15 17 -15 23 0 6 -7 18 -15 27 -13 15 -13 23 4 74 11 31 22 60 25 64 8 14 80
0 93 -17z"/>
<path d="M929 1543 c-38 -16 -29 -43 28 -90 82 -67 94 -126 39 -187 l-35 -37
-84 7 c-105 8 -130 -4 -174 -85 -37 -69 -70 -89 -165 -103 -79 -11 -100 -23
-118 -69 -29 -70 24 -119 129 -119 79 0 164 -26 198 -60 l26 -25 -32 -3 c-35
-4 -52 -29 -30 -43 8 -5 33 -9 56 -9 47 0 53 -6 64 -64 7 -36 4 -47 -27 -99
-44 -72 -41 -106 16 -142 32 -21 38 -30 44 -73 7 -51 21 -70 70 -96 27 -14 33
-14 65 3 20 11 50 24 68 31 32 12 32 13 15 35 -14 20 -23 23 -57 18 -30 -4
-44 -1 -54 11 -17 20 -7 46 20 53 11 3 52 21 90 39 81 39 86 40 111 17 15 -14
22 -14 42 -3 27 14 46 7 46 -17 0 -19 -22 -37 -78 -64 -24 -11 -42 -23 -39
-26 3 -3 31 7 61 22 58 28 82 29 142 4 28 -11 36 -10 58 4 14 10 33 29 43 43
19 30 44 192 36 240 -10 61 3 83 63 111 56 25 82 58 71 88 -10 25 -34 29 -105
16 -64 -11 -112 -16 -139 -12 -9 1 -10 8 -3 25 14 37 -11 39 -33 4 l-17 -29
-30 21 c-35 25 -37 45 -10 80 25 31 25 43 1 64 -16 15 -30 16 -89 11 -62 -7
-72 -5 -90 13 -12 12 -24 37 -28 57 -5 30 2 53 57 162 41 83 64 143 67 173 4
45 2 49 -36 81 -40 33 -43 34 -133 34 -50 0 -104 -5 -120 -12z m102 -372 c20
-16 22 -23 12 -39 -6 -11 -8 -24 -3 -33 10 -15 -3 -34 -32 -50 -22 -12 -62 6
-55 26 3 7 0 12 -6 12 -7 0 -36 1 -64 1 -51 2 -53 3 -53 31 0 42 21 55 79 47
39 -5 50 -3 55 9 8 21 39 19 67 -4z"/>
</g>
</svg>
